# xmcd CD database file
#
# Track frame offsets:
#	150
#	52843
#	127868
#	210218
#	223343
#	310718
#	321868
#
# Disc length: 4360 seconds
#
# Revision: 0
# Processed by: cddbd v1.5.1PL0 Copyright (c) Steve Scherf et al.
# Submitted via: CDex 1.51
#
DISCID=59110607
DTITLE=Thelonious Monk - Sweet and Lovely
DYEAR=1900
DGENRE=Jazz
TTITLE0=Off Minor
TTITLE1=Lulu's Back In Town
TTITLE2=Sweet And Lovely
TTITLE3=I Love You
TTITLE4=Medley (Just A Gigolo/I'm Gettin' Sentimenal Over You)
TTITLE5=Crepuscle With Nellie
TTITLE6=Epistrophy
EXTD=
EXTT0=
EXTT1=
EXTT2=
EXTT3=
EXTT4=
EXTT5=
EXTT6=
PLAYORDER=
